<mxfile host="app.diagrams.net" modified="2021-10-09T07:43:05.459Z" agent="5.0 (Windows NT 10.0; Win64; x64) AppleWebKit/537.36 (KHTML, like Gecko) Chrome/93.0.4577.82 Safari/537.36" etag="bv1ZWPZhn-0sk8By4VnK" version="15.5.0" type="github">
  <diagram id="C5RBs43oDa-KdzZeNtuy" name="Page-1">
    <mxGraphModel dx="1422" dy="762" grid="1" gridSize="10" guides="1" tooltips="1" connect="1" arrows="1" fold="1" page="1" pageScale="1" pageWidth="827" pageHeight="1169" math="0" shadow="0">
      <root>
        <mxCell id="WIyWlLk6GJQsqaUBKTNV-0" />
        <mxCell id="WIyWlLk6GJQsqaUBKTNV-1" parent="WIyWlLk6GJQsqaUBKTNV-0" />
        <mxCell id="fKWi5u7TBhnk879xxYK1-0" value="短视频" style="ellipse;whiteSpace=wrap;html=1;aspect=fixed;spacing=5;strokeWidth=3;" vertex="1" parent="WIyWlLk6GJQsqaUBKTNV-1">
          <mxGeometry x="80" y="345" width="80" height="80" as="geometry" />
        </mxCell>
        <mxCell id="fKWi5u7TBhnk879xxYK1-1" value="入库" style="whiteSpace=wrap;html=1;verticalAlign=top;spacing=5;strokeWidth=3;" vertex="1" parent="WIyWlLk6GJQsqaUBKTNV-1">
          <mxGeometry x="220" y="300" width="140" height="170" as="geometry" />
        </mxCell>
        <mxCell id="fKWi5u7TBhnk879xxYK1-3" value="hbase" style="whiteSpace=wrap;html=1;spacing=5;strokeWidth=3;" vertex="1" parent="WIyWlLk6GJQsqaUBKTNV-1">
          <mxGeometry x="230" y="330" width="120" height="60" as="geometry" />
        </mxCell>
        <mxCell id="fKWi5u7TBhnk879xxYK1-5" value="svideo业务库" style="whiteSpace=wrap;html=1;spacing=5;strokeWidth=3;" vertex="1" parent="WIyWlLk6GJQsqaUBKTNV-1">
          <mxGeometry x="230" y="400" width="120" height="60" as="geometry" />
        </mxCell>
        <mxCell id="fKWi5u7TBhnk879xxYK1-6" value="" style="shape=singleArrow;whiteSpace=wrap;html=1;verticalAlign=top;spacing=5;strokeWidth=3;" vertex="1" parent="WIyWlLk6GJQsqaUBKTNV-1">
          <mxGeometry x="166" y="355" width="50" height="60" as="geometry" />
        </mxCell>
        <mxCell id="fKWi5u7TBhnk879xxYK1-7" value="内容理解" style="whiteSpace=wrap;html=1;verticalAlign=top;spacing=5;strokeWidth=3;" vertex="1" parent="WIyWlLk6GJQsqaUBKTNV-1">
          <mxGeometry x="372" y="300" width="140" height="170" as="geometry" />
        </mxCell>
        <mxCell id="fKWi5u7TBhnk879xxYK1-8" value="hbase" style="whiteSpace=wrap;html=1;spacing=5;strokeWidth=3;" vertex="1" parent="WIyWlLk6GJQsqaUBKTNV-1">
          <mxGeometry x="382" y="330" width="120" height="60" as="geometry" />
        </mxCell>
        <mxCell id="fKWi5u7TBhnk879xxYK1-9" value="svideo业务库" style="whiteSpace=wrap;html=1;spacing=5;strokeWidth=3;" vertex="1" parent="WIyWlLk6GJQsqaUBKTNV-1">
          <mxGeometry x="382" y="400" width="120" height="60" as="geometry" />
        </mxCell>
        <mxCell id="fKWi5u7TBhnk879xxYK1-10" value="人工打标" style="whiteSpace=wrap;html=1;verticalAlign=top;spacing=5;strokeWidth=3;" vertex="1" parent="WIyWlLk6GJQsqaUBKTNV-1">
          <mxGeometry x="525" y="300" width="140" height="170" as="geometry" />
        </mxCell>
        <mxCell id="fKWi5u7TBhnk879xxYK1-11" value="hbase" style="whiteSpace=wrap;html=1;spacing=5;strokeWidth=3;" vertex="1" parent="WIyWlLk6GJQsqaUBKTNV-1">
          <mxGeometry x="535" y="330" width="120" height="60" as="geometry" />
        </mxCell>
        <mxCell id="fKWi5u7TBhnk879xxYK1-12" value="svideo业务库" style="whiteSpace=wrap;html=1;spacing=5;strokeWidth=3;" vertex="1" parent="WIyWlLk6GJQsqaUBKTNV-1">
          <mxGeometry x="535" y="400" width="120" height="60" as="geometry" />
        </mxCell>
        <mxCell id="fKWi5u7TBhnk879xxYK1-16" value="Module" style="shape=module;align=left;spacingLeft=20;align=center;verticalAlign=top;" vertex="1" parent="WIyWlLk6GJQsqaUBKTNV-1">
          <mxGeometry x="360" y="370" width="100" height="50" as="geometry" />
        </mxCell>
      </root>
    </mxGraphModel>
  </diagram>
</mxfile>
